<?xml version="1.0" encoding="iso-8859-1"?>
<!-- Generator: Adobe Illustrator 19.0.0, SVG Export Plug-In . SVG Version: 6.00 Build 0)  -->
<svg xmlns="http://www.w3.org/2000/svg" xmlns:xlink="http://www.w3.org/1999/xlink" version="1.1" id="Layer_1" x="0px" y="0px" viewBox="0 0 512 512" style="enable-background:new 0 0 512 512;" xml:space="preserve" width="512" height="512">
<g id="XMLID_1242_">
	<g id="XMLID_1208_">
		<g id="XMLID_1209_">
			<path id="XMLID_1241_" d="M462,152c-2.63,0-5.21,1.069-7.07,2.93c-1.86,1.86-2.93,4.44-2.93,7.07s1.07,5.21,2.93,7.069     c1.86,1.86,4.44,2.931,7.07,2.931c2.63,0,5.21-1.07,7.07-2.931c1.86-1.859,2.93-4.439,2.93-7.069s-1.07-5.21-2.93-7.07     S464.63,152,462,152z"/>
			<path id="XMLID_1240_" d="M180,443.667h-0.15c-5.523,0-10,4.478-10,10s4.477,10,10,10H180c5.523,0,10-4.478,10-10     S185.523,443.667,180,443.667z"/>
			<path id="XMLID_1217_" d="M482,40h-34.254v-6c0-18.748-15.252-34-34-34s-34,15.252-34,34v6h-89.873v-6c0-18.748-15.252-34-34-34     s-34,15.252-34,34v6H132v-6c0-18.748-15.252-34-34-34S64,15.252,64,34v6H30C13.458,40,0,53.458,0,70v412     c0,16.542,13.458,30,30,30h452c16.542,0,30-13.458,30-30V70C512,53.458,498.542,40,482,40z M399.746,34c0-7.72,6.28-14,14-14     s14,6.28,14,14v49c0,7.72-6.28,14-14,14s-14-6.28-14-14V34z M241.873,34c0-7.72,6.28-14,14-14s14,6.28,14,14v49     c0,7.72-6.28,14-14,14s-14-6.28-14-14V34z M84,34c0-7.72,6.28-14,14-14s14,6.28,14,14v49c0,7.72-6.28,14-14,14s-14-6.28-14-14V34     z M492,482c0,5.514-4.486,10-10,10H30c-5.514,0-10-4.486-10-10v-18.333h120c5.523,0,10-4.478,10-10s-4.477-10-10-10H20V172h402     c5.523,0,10-4.478,10-10s-4.477-10-10-10H20V70c0-5.514,4.486-10,10-10h34v23c0,18.748,15.252,34,34,34s34-15.252,34-34V60     h89.873v23c0,18.748,15.252,34,34,34s34-15.252,34-34V60h89.873v23c0,18.748,15.252,34,34,34s34-15.252,34-34V60H482     c5.514,0,10,4.486,10,10V482z"/>
			<path id="XMLID_1216_" d="M410.788,301.931c-2.761-4.782-8.877-6.423-13.66-3.66l-18.554,10.712l2.356-8.792     c1.43-5.334-1.736-10.817-7.071-12.247c-5.337-1.43-10.818,1.736-12.248,7.071l-7.532,28.11l-29.023,16.757v-33.513     l20.578-20.578c3.905-3.905,3.905-10.237,0-14.143c-3.905-3.904-10.237-3.904-14.143,0l-6.436,6.436V256.66     c0-5.522-4.477-10-10-10s-10,4.478-10,10v21.423l-6.436-6.436c-3.905-3.904-10.237-3.904-14.143,0     c-3.905,3.905-3.905,10.237,0,14.143l20.578,20.578v33.513l-29.024-16.757l-7.532-28.11c-1.43-5.335-6.912-8.502-12.247-7.071     c-5.335,1.43-8.501,6.913-7.071,12.247l2.356,8.792l-18.553-10.712c-4.783-2.763-10.898-1.123-13.66,3.66     s-1.123,10.898,3.66,13.66l18.554,10.712l-8.792,2.356c-5.334,1.43-8.5,6.913-7.071,12.247c1.197,4.469,5.237,7.415,9.653,7.415     c0.856,0,1.728-0.111,2.595-0.344l28.11-7.532l29.023,16.757l-29.024,16.757l-28.109-7.532     c-5.336-1.431-10.818,1.735-12.248,7.071c-1.43,5.334,1.736,10.817,7.071,12.247l8.791,2.356l-18.553,10.712     c-4.783,2.762-6.422,8.877-3.66,13.66c1.852,3.208,5.213,5.002,8.669,5.002c1.696,0,3.416-0.433,4.991-1.342l18.553-10.712     l-2.356,8.792c-1.43,5.334,1.736,10.817,7.071,12.247c0.867,0.232,1.738,0.344,2.595,0.344c4.415,0,8.456-2.947,9.653-7.415     l7.532-28.11l29.024-16.757v33.513l-20.578,20.579c-3.905,3.905-3.905,10.237,0,14.143c3.905,3.904,10.237,3.904,14.142,0     l6.436-6.436v21.423c0,5.522,4.477,10,10,10s10-4.478,10-10v-21.423l6.436,6.436c1.953,1.952,4.512,2.929,7.071,2.929     c2.559,0,5.119-0.977,7.071-2.929c3.905-3.905,3.906-10.237,0-14.143l-20.578-20.579v-33.513l29.023,16.756l7.532,28.11     c1.197,4.469,5.237,7.415,9.653,7.415c0.856-0.001,1.728-0.111,2.595-0.344c5.334-1.43,8.5-6.913,7.071-12.247l-2.356-8.792     l18.554,10.712c1.575,0.909,3.294,1.342,4.991,1.342c3.456,0,6.817-1.794,8.669-5.002c2.762-4.783,1.123-10.898-3.66-13.66     l-18.553-10.712l8.791-2.356c5.334-1.43,8.5-6.913,7.071-12.247c-1.43-5.336-6.914-8.504-12.248-7.071l-28.109,7.532     l-29.024-16.757l29.023-16.757l28.11,7.532c0.867,0.232,1.738,0.344,2.595,0.344c4.415-0.001,8.456-2.947,9.653-7.415     c1.43-5.334-1.736-10.817-7.071-12.247l-8.792-2.356l18.554-10.712C411.911,312.829,413.55,306.714,410.788,301.931z"/>
			<path id="XMLID_1215_" d="M194.398,231.9c-2.761-4.783-8.877-6.422-13.66-3.66l-22.933,13.24V215c0-5.522-4.477-10-10-10     s-10,4.478-10,10v26.481l-22.933-13.24c-4.782-2.761-10.898-1.122-13.66,3.66c-2.762,4.783-1.123,10.898,3.66,13.66     l22.933,13.241l-22.933,13.241c-4.783,2.762-6.422,8.877-3.66,13.66c1.852,3.208,5.213,5.002,8.669,5.002     c1.696,0,3.416-0.433,4.991-1.342l22.933-13.24v26.481c0,5.522,4.477,10,10,10s10-4.478,10-10v-26.481l22.933,13.24     c1.575,0.909,3.294,1.342,4.991,1.342c3.456,0,6.817-1.794,8.669-5.002c2.762-4.783,1.123-10.898-3.66-13.66l-22.933-13.241     l22.933-13.241C195.521,242.799,197.16,236.684,194.398,231.9z"/>
		</g>
	</g>
</g>















</svg>
