<?xml version="1.0" encoding="iso-8859-1"?>
<!-- Generator: Adobe Illustrator 18.1.1, SVG Export Plug-In . SVG Version: 6.00 Build 0)  -->
<svg version="1.1" id="Capa_1" xmlns="http://www.w3.org/2000/svg" xmlns:xlink="http://www.w3.org/1999/xlink" x="0px" y="0px"
	 viewBox="0 0 524.237 524.237" style="enable-background:new 0 0 524.237 524.237;" xml:space="preserve">
<g>
	<g>
		<path d="M209.95,465.552c3.117,3.117,7.367,4.533,11.9,4.533h0.283c4.533,0,8.783-1.7,11.9-4.817l183.6-188.983
			c6.517-6.8,6.517-17.283-0.283-23.8L220.15,55.569c-3.117-3.117-7.65-4.817-11.9-4.817l0,0L18.133,51.035
			c-9.35,0-17,7.367-17,16.717L0,254.469c0,4.533,1.7,9.067,5.1,12.183L209.95,465.552z M35.133,84.752l166.033-0.567l180.2,180.2
			l-160.083,164.9L34,247.385L35.133,84.752z"/>
		<path d="M321.017,77.669c-6.8,6.517-6.8,17.283-0.283,24.083l162.633,165.467L311.383,444.585
			c-6.517,6.8-6.233,17.567,0.283,24.083c3.4,3.117,7.65,4.817,11.9,4.817c4.533,0,8.783-1.7,12.183-5.1l183.6-189.267
			c6.517-6.517,6.517-17.283,0-23.8L345.1,77.952C338.3,71.435,327.533,71.152,321.017,77.669z"/>
		<circle cx="118.15" cy="163.235" r="6.233"/>
		<path d="M118.15,140.002c-12.75,0-23.233,10.483-23.233,23.233s10.483,23.233,23.233,23.233s23.233-10.483,23.233-23.233
			C141.1,150.485,130.9,140.002,118.15,140.002z M118.15,174.002c-5.95,0-10.767-4.817-10.767-10.767
			c0-5.95,4.817-10.767,10.767-10.767c5.95,0,10.767,4.817,10.767,10.767C128.917,169.185,124.1,174.002,118.15,174.002z"/>
	</g>
</g>
<g>
</g>
<g>
</g>
<g>
</g>
<g>
</g>
<g>
</g>
<g>
</g>
<g>
</g>
<g>
</g>
<g>
</g>
<g>
</g>
<g>
</g>
<g>
</g>
<g>
</g>
<g>
</g>
<g>
</g>
</svg>
